<?xml version="1.0" encoding="iso-8859-1"?>
<!-- Uploaded to: SVG Repo, www.svgrepo.com, Generator: SVG Repo Mixer Tools -->
<svg fill="#000000" height="800px" width="800px" version="1.1" id="Layer_1" xmlns="http://www.w3.org/2000/svg" xmlns:xlink="http://www.w3.org/1999/xlink" 
	 viewBox="0 0 512 512" xml:space="preserve">
<g>
	<g>
		<path d="M492.308,334.769H471.71c-8.368-92.415-75.015-168.256-162.802-190.376c3.941-7.911,6.169-16.817,6.169-26.239
			c0-32.575-26.501-59.077-59.077-59.077c-32.576,0-59.077,26.502-59.077,59.077c0,9.422,2.228,18.328,6.168,26.239
			c-87.787,22.12-154.434,97.961-162.8,190.376H19.692C8.817,334.769,0,343.586,0,354.462s8.817,19.692,19.692,19.692h19.692v59.077
			c0,10.875,8.817,19.692,19.692,19.692h393.846c10.875,0,19.692-8.817,19.692-19.692v-59.077h19.692
			c10.875,0,19.692-8.817,19.692-19.692S503.183,334.769,492.308,334.769z M256,98.462c10.858,0,19.692,8.834,19.692,19.692
			s-8.834,19.692-19.692,19.692s-19.692-8.834-19.692-19.692S245.142,98.462,256,98.462z M256,177.231
			c91.069,0,166.315,69.048,176.144,157.538H79.856C89.684,246.279,164.931,177.231,256,177.231z M433.231,413.538H78.769v-39.385
			h354.462V413.538z"/>
	</g>
</g>
<g>
	<g>
		<path d="M358.741,262.559C332.608,233.362,295.16,216.615,256,216.615c-10.875,0-19.692,8.817-19.692,19.692
			c0,10.875,8.817,19.692,19.692,19.692c27.972,0,54.724,11.964,73.395,32.826c3.89,4.347,9.272,6.559,14.68,6.559
			c4.676,0,9.37-1.656,13.127-5.019C365.305,283.112,365.995,270.663,358.741,262.559z"/>
	</g>
</g>
</svg>